<svg width="64" height="64" viewBox="0 0 64 64" fill="none" xmlns="http://www.w3.org/2000/svg">
<rect width="64" height="64" rx="4" fill="#090909"/>
<path fill-rule="evenodd" clip-rule="evenodd" d="M34.5696 42.4459L39.8049 39.346C41.5967 40.4123 43.394 41.4731 45.1886 42.5339L44.1855 44.2322L39.8049 41.6379L35.427 44.2322L34.4212 42.5339L34.5723 42.4459H34.5696ZM29.1171 22.0378L23.7746 25.1213C21.9443 24.066 20.1113 23.0107 18.2838 21.9499L19.2676 20.2432L23.7746 22.8485L28.2844 20.2432L29.2655 21.9499L29.1144 22.0378H29.1171ZM32.437 24.8794L31.5411 23.324L36.0453 20.7214V16.2089H38.024V20.7214L41.7066 22.8485L44.7929 21.0677V15.3652L38.4363 11.6991L32.7805 14.9667L27.1824 11.7348L22.876 14.0241L27.493 16.6898L26.5064 18.3965L20.8231 15.1151L14.6177 18.4157V24.3133L19.1192 26.9159L18.1381 28.6225L13.6695 26.0419L8 29.8454V36.0316L13.719 39.8654L17.3576 37.7657V34.2013L12.8561 31.6015L13.8372 29.8922L18.347 32.4974L22.8595 29.8922L23.8406 31.6015L19.3363 34.2013V37.7657L23.0189 39.8901L27.5287 37.2876L28.5098 38.9969L24.0082 41.5967V46.1093H22.0323V41.5967L18.3497 39.4696L14.6671 41.5967V46.6149L20.2377 49.3054L26.215 45.8537L33.0113 49.7781L39.9945 45.8564L51.1494 52.301V42.0749L42.2068 36.9138L43.1879 35.2072L51.2319 39.8516L56 37.392V30.3868L48.1759 25.866L49.1625 24.1594L55.9972 28.1086V21.4195L52.2075 19.0615L42.685 24.5579V28.1223L51.0862 32.9701L50.0969 34.6768L41.6956 29.8289L34.0969 34.2151V38.7304H32.1209V34.2151L27.6166 31.6153L28.5977 29.9086L33.1075 32.5139L40.709 28.1223V24.5579L37.0265 22.4336L32.5167 25.0361L32.4287 24.8849L32.437 24.8794Z" fill="white"/>
</svg>
